<?xml version="1.0" encoding="utf-8"?>
<!-- Generator: Adobe Illustrator 15.0.0, SVG Export Plug-In . SVG Version: 6.00 Build 0)  -->
<!DOCTYPE svg PUBLIC "-//W3C//DTD SVG 1.1//EN" "http://www.w3.org/Graphics/SVG/1.1/DTD/svg11.dtd">
<svg version="1.1" id="Ebene_1" xmlns="http://www.w3.org/2000/svg" xmlns:xlink="http://www.w3.org/1999/xlink" x="0px" y="0px"
	 width="141.732px" height="109.673px" viewBox="0 0 141.732 109.673" enable-background="new 0 0 141.732 109.673"
	 xml:space="preserve">
<path fill="#E84E0F" d="M71.736,29.835c-14.008,0.728-20.315,10.126-20.315,24.923v34.746h13.219V54.752
	c0-8.732,1.759-12.492,10.854-12.673V29.896C74.403,29.774,72.646,29.774,71.736,29.835z M31.168,29.835
	C17.1,30.563,10.854,39.901,10.854,54.758v29.96c0,8.732-1.759,12.493-10.854,12.675v12.121c1.091,0.184,2.849,0.184,3.759,0.122
	c14.128-0.849,20.313-10.248,20.313-24.923v-29.96c0-8.793,1.638-12.492,10.794-12.673V29.896
	C33.835,29.774,32.078,29.774,31.168,29.835z M121.296,29.411c-2.484-0.121-5.577,0-8.67,0.364v12.244
	c11.642,0,15.888,1.705,15.888,12.492v34.994h13.219V52.877C141.732,39.355,134.031,29.896,121.296,29.411z M92.614,89.504h13.219V0
	H92.614V89.504z"/>
</svg>
